<svg xmlns="http://www.w3.org/2000/svg" width="64" height="64" viewBox="0 0 64 64" fill="none">
  <!-- Fondo redondeado con gradiente naranja a rosa -->
  <rect width="64" height="64" rx="16" fill="url(#paint0_linear)" />
  
  <!-- Icono de cámara simplificado -->
  <path d="M42 24H38L36 20H28L26 24H22C19.8 24 18 25.8 18 28V40C18 42.2 19.8 44 22 44H42C44.2 44 46 42.2 46 40V28C46 25.8 44.2 24 42 24ZM32 40C28.7 40 26 37.3 26 34C26 30.7 28.7 28 32 28C35.3 28 38 30.7 38 34C38 37.3 35.3 40 32 40ZM32 30C29.8 30 28 31.8 28 34C28 36.2 29.8 38 32 38C34.2 38 36 36.2 36 34C36 31.8 34.2 30 32 30Z" fill="white"/>
  
  <!-- Pequeño destello en la esquina superior derecha -->
  <circle cx="44" cy="20" r="6" fill="url(#paint1_linear)" />
  <path d="M44 17L45 20H48L45.5 22L46.5 25L44 23L41.5 25L42.5 22L40 20H43L44 17Z" fill="white"/>
  
  <!-- Definiciones de gradientes -->
  <defs>
    <linearGradient id="paint0_linear" x1="0" y1="0" x2="64" y2="64" gradientUnits="userSpaceOnUse">
      <stop stop-color="#F97316" />
      <stop offset="0.5" stop-color="#EC4899" />
      <stop offset="1" stop-color="#A855F7" />
    </linearGradient>
    <linearGradient id="paint1_linear" x1="38" y1="14" x2="50" y2="26" gradientUnits="userSpaceOnUse">
      <stop stop-color="#0EA5E9" />
      <stop offset="1" stop-color="#2563EB" />
    </linearGradient>
  </defs>
</svg>